<?xml version="1.0" encoding="UTF-8"?>
<svg width="100px" height="100px" viewBox="0 0 100 100" version="1.1" xmlns="http://www.w3.org/2000/svg" xmlns:xlink="http://www.w3.org/1999/xlink">
    <!-- Generator: Sketch 63.1 (92452) - https://sketch.com -->
    <title>Group 2</title>
    <desc>Created with Sketch.</desc>
    <g id="Page-1" stroke="none" stroke-width="1" fill="none" fill-rule="evenodd">
        <g id="Group-2" transform="translate(0.000000, -0.000000)">
            <circle id="Oval-Copy" fill="#000000" cx="50" cy="50" r="50"></circle>
            <g id="Group" transform="translate(17.702000, 33.436000)" fill="#FFFFFF" fill-rule="nonzero">
                <path d="M5.418,12.564 L5.418,11.304 L3.654,11.304 L3.654,1.26 L5.418,1.26 L5.418,3.55271368e-15 L0.378,3.55271368e-15 L0.378,1.26 L2.142,1.26 L2.142,11.304 L0.378,11.304 L0.378,12.564 L5.418,12.564 Z M13.878,12.564 C14.346,12.564 14.778,12.471 15.174,12.285 C15.57,12.099 15.912,11.844 16.2,11.52 C16.488,11.196 16.713,10.812 16.875,10.368 C17.037,9.924 17.118,9.444 17.118,8.928 C17.118,8.412 17.031,7.971 16.857,7.605 C16.683,7.239 16.47,6.939 16.218,6.705 C15.966,6.471 15.699,6.3 15.417,6.192 C15.135,6.084 14.88,6.024 14.652,6.012 L14.652,6.012 L14.652,5.904 C14.856,5.868 15.078,5.799 15.318,5.697 C15.558,5.595 15.78,5.439 15.984,5.229 C16.188,5.019 16.356,4.752 16.488,4.428 C16.62,4.104 16.686,3.708 16.686,3.24 C16.686,2.256 16.389,1.47 15.795,0.882 C15.201,0.294 14.382,3.55271368e-15 13.338,3.55271368e-15 L13.338,3.55271368e-15 L8.172,3.55271368e-15 L8.172,12.564 L13.878,12.564 Z M13.158,5.436 L9.684,5.436 L9.684,1.332 L13.158,1.332 C13.758,1.332 14.226,1.482 14.562,1.782 C14.898,2.082 15.066,2.514 15.066,3.078 L15.066,3.078 L15.066,3.69 C15.066,4.254 14.898,4.686 14.562,4.986 C14.226,5.286 13.758,5.436 13.158,5.436 L13.158,5.436 Z M13.41,11.232 L9.684,11.232 L9.684,6.732 L13.41,6.732 C14.058,6.732 14.568,6.897 14.94,7.227 C15.312,7.557 15.498,8.04 15.498,8.676 L15.498,8.676 L15.498,9.288 C15.498,9.924 15.312,10.407 14.94,10.737 C14.568,11.067 14.058,11.232 13.41,11.232 L13.41,11.232 Z M21.402,12.564 L21.402,1.98 L21.492,1.98 L22.554,4.086 L25.56,9.558 L28.566,4.086 L29.628,1.98 L29.718,1.98 L29.718,12.564 L31.194,12.564 L31.194,3.55271368e-15 L29.25,3.55271368e-15 L25.632,6.768 L25.542,6.768 L21.942,3.55271368e-15 L19.926,3.55271368e-15 L19.926,12.564 L21.402,12.564 Z" id="IBM"></path>
                <path d="M4.68,31.78 C5.436,31.78 6.105,31.684 6.687,31.492 C7.269,31.3 7.761,31.027 8.163,30.673 C8.565,30.319 8.871,29.899 9.081,29.413 C9.291,28.927 9.396,28.384 9.396,27.784 C9.396,26.74 9.093,25.927 8.487,25.345 C7.881,24.763 6.942,24.358 5.67,24.13 L5.67,24.13 L4.5,23.914 C3.888,23.806 3.444,23.638 3.168,23.41 C2.892,23.182 2.754,22.828 2.754,22.348 C2.754,21.88 2.925,21.517 3.267,21.259 C3.609,21.001 4.122,20.872 4.806,20.872 C5.478,20.872 6.036,20.992 6.48,21.232 C6.924,21.472 7.302,21.784 7.614,22.168 L7.614,22.168 L9.234,20.638 C8.73,20.026 8.124,19.564 7.416,19.252 C6.708,18.94 5.88,18.784 4.932,18.784 C4.224,18.784 3.591,18.871 3.033,19.045 C2.475,19.219 1.998,19.468 1.602,19.792 C1.206,20.116 0.903,20.506 0.693,20.962 C0.483,21.418 0.378,21.928 0.378,22.492 C0.378,24.532 1.632,25.75 4.14,26.146 L4.14,26.146 L5.328,26.326 C5.988,26.446 6.438,26.638 6.678,26.902 C6.918,27.166 7.038,27.508 7.038,27.928 C7.038,28.468 6.852,28.897 6.48,29.215 C6.108,29.533 5.556,29.692 4.824,29.692 C4.176,29.692 3.585,29.56 3.051,29.296 C2.517,29.032 2.034,28.648 1.602,28.144 L1.602,28.144 L-2.84217094e-14,29.692 C0.54,30.316 1.185,30.82 1.935,31.204 C2.685,31.588 3.6,31.78 4.68,31.78 Z M16.218,31.564 L16.218,29.728 L14.436,29.728 L14.436,24.004 L16.362,24.004 L16.362,22.168 L14.436,22.168 L14.436,19.594 L12.366,19.594 L12.366,21.196 C12.366,21.52 12.303,21.763 12.177,21.925 C12.051,22.087 11.814,22.168 11.466,22.168 L11.466,22.168 L10.746,22.168 L10.746,24.004 L12.132,24.004 L12.132,29.17 C12.132,29.938 12.339,30.529 12.753,30.943 C13.167,31.357 13.77,31.564 14.562,31.564 L14.562,31.564 L16.218,31.564 Z M22.158,31.78 C23.034,31.78 23.805,31.627 24.471,31.321 C25.137,31.015 25.662,30.592 26.046,30.052 L26.046,30.052 L24.804,28.666 C24.516,29.038 24.189,29.344 23.823,29.584 C23.457,29.824 22.986,29.944 22.41,29.944 C21.654,29.944 21.084,29.737 20.7,29.323 C20.316,28.909 20.124,28.36 20.124,27.676 L20.124,27.676 L20.124,27.442 L26.37,27.442 L26.37,26.686 C26.37,26.038 26.283,25.429 26.109,24.859 C25.935,24.289 25.674,23.788 25.326,23.356 C24.978,22.924 24.534,22.582 23.994,22.33 C23.454,22.078 22.818,21.952 22.086,21.952 C21.402,21.952 20.79,22.069 20.25,22.303 C19.71,22.537 19.254,22.867 18.882,23.293 C18.51,23.719 18.225,24.232 18.027,24.832 C17.829,25.432 17.73,26.104 17.73,26.848 C17.73,27.604 17.832,28.285 18.036,28.891 C18.24,29.497 18.531,30.013 18.909,30.439 C19.287,30.865 19.749,31.195 20.295,31.429 C20.841,31.663 21.462,31.78 22.158,31.78 Z M23.976,26.02 L20.124,26.02 L20.124,25.876 C20.124,25.228 20.304,24.7 20.664,24.292 C21.024,23.884 21.51,23.68 22.122,23.68 C22.722,23.68 23.181,23.881 23.499,24.283 C23.817,24.685 23.976,25.21 23.976,25.858 L23.976,25.858 L23.976,26.02 Z M30.708,31.564 L30.708,25.804 C30.708,25.288 30.906,24.916 31.302,24.688 C31.698,24.46 32.286,24.346 33.066,24.346 L33.066,24.346 L33.786,24.346 L33.786,22.168 L33.282,22.168 C32.91,22.168 32.583,22.222 32.301,22.33 C32.019,22.438 31.776,22.582 31.572,22.762 C31.368,22.942 31.203,23.149 31.077,23.383 C30.951,23.617 30.858,23.86 30.798,24.112 L30.798,24.112 L30.708,24.112 L30.708,22.168 L28.404,22.168 L28.404,31.564 L30.708,31.564 Z M39.024,31.564 L39.024,29.728 L37.782,29.728 L37.782,18.244 L35.478,18.244 L35.478,29.296 C35.478,30.016 35.664,30.574 36.036,30.97 C36.408,31.366 36.99,31.564 37.782,31.564 L37.782,31.564 L39.024,31.564 Z M41.922,20.8 C42.39,20.8 42.732,20.692 42.948,20.476 C43.164,20.26 43.272,19.984 43.272,19.648 L43.272,19.648 L43.272,19.288 C43.272,18.952 43.164,18.676 42.948,18.46 C42.732,18.244 42.39,18.136 41.922,18.136 C41.442,18.136 41.097,18.244 40.887,18.46 C40.677,18.676 40.572,18.952 40.572,19.288 L40.572,19.288 L40.572,19.648 C40.572,19.984 40.677,20.26 40.887,20.476 C41.097,20.692 41.442,20.8 41.922,20.8 Z M43.074,31.564 L43.074,22.168 L40.77,22.168 L40.77,31.564 L43.074,31.564 Z M48.042,31.564 L48.042,25.354 C48.042,25.102 48.096,24.883 48.204,24.697 C48.312,24.511 48.453,24.355 48.627,24.229 C48.801,24.103 48.999,24.007 49.221,23.941 C49.443,23.875 49.674,23.842 49.914,23.842 C50.466,23.842 50.862,24.01 51.102,24.346 C51.342,24.682 51.462,25.186 51.462,25.858 L51.462,25.858 L51.462,31.564 L53.766,31.564 L53.766,25.624 C53.766,24.448 53.508,23.542 52.992,22.906 C52.476,22.27 51.732,21.952 50.76,21.952 C50.028,21.952 49.455,22.123 49.041,22.465 C48.627,22.807 48.324,23.23 48.132,23.734 L48.132,23.734 L48.042,23.734 L48.042,22.168 L45.738,22.168 L45.738,31.564 L48.042,31.564 Z M59.868,35.38 C60.768,35.38 61.53,35.314 62.154,35.182 C62.778,35.05 63.288,34.858 63.684,34.606 C64.08,34.354 64.365,34.039 64.539,33.661 C64.713,33.283 64.8,32.848 64.8,32.356 C64.8,31.516 64.539,30.859 64.017,30.385 C63.495,29.911 62.658,29.674 61.506,29.674 L61.506,29.674 L58.986,29.674 C58.17,29.674 57.762,29.44 57.762,28.972 C57.762,28.768 57.828,28.597 57.96,28.459 C58.092,28.321 58.248,28.21 58.428,28.126 C58.836,28.234 59.316,28.288 59.868,28.288 C61.152,28.288 62.121,28 62.775,27.424 C63.429,26.848 63.756,26.086 63.756,25.138 C63.756,24.562 63.636,24.052 63.396,23.608 C63.156,23.164 62.79,22.804 62.298,22.528 L62.298,22.528 L62.298,22.276 L64.296,22.276 L64.296,20.512 L62.838,20.512 C61.95,20.512 61.506,20.968 61.506,21.88 L61.506,21.88 L61.506,22.186 C61.266,22.102 61.005,22.042 60.723,22.006 C60.441,21.97 60.156,21.952 59.868,21.952 C58.596,21.952 57.63,22.243 56.97,22.825 C56.31,23.407 55.98,24.178 55.98,25.138 C55.98,25.762 56.121,26.308 56.403,26.776 C56.685,27.244 57.114,27.61 57.69,27.874 L57.69,27.874 L57.69,27.946 C57.462,27.994 57.246,28.063 57.042,28.153 C56.838,28.243 56.655,28.354 56.493,28.486 C56.331,28.618 56.202,28.777 56.106,28.963 C56.01,29.149 55.962,29.362 55.962,29.602 C55.962,29.986 56.067,30.319 56.277,30.601 C56.487,30.883 56.784,31.072 57.168,31.168 L57.168,31.168 L57.168,31.366 C56.64,31.45 56.229,31.639 55.935,31.933 C55.641,32.227 55.494,32.638 55.494,33.166 C55.494,33.514 55.572,33.826 55.728,34.102 C55.884,34.378 56.139,34.609 56.493,34.795 C56.847,34.981 57.3,35.125 57.852,35.227 C58.404,35.329 59.076,35.38 59.868,35.38 Z M59.868,26.722 C58.74,26.722 58.176,26.242 58.176,25.282 L58.176,25.282 L58.176,24.976 C58.176,24.016 58.74,23.536 59.868,23.536 C60.996,23.536 61.56,24.016 61.56,24.976 L61.56,24.976 L61.56,25.282 C61.56,26.242 60.996,26.722 59.868,26.722 Z M60.48,33.796 L59.328,33.796 C58.608,33.796 58.098,33.694 57.798,33.49 C57.498,33.286 57.348,33.004 57.348,32.644 C57.348,32.236 57.51,31.912 57.834,31.672 L57.834,31.672 L61.038,31.672 C61.626,31.672 62.04,31.756 62.28,31.924 C62.52,32.092 62.64,32.326 62.64,32.626 C62.64,33.022 62.469,33.316 62.127,33.508 C61.785,33.7 61.236,33.796 60.48,33.796 L60.48,33.796 Z" id="Sterling"></path>
            </g>
        </g>
    </g>
</svg>